<?xml version="1.0" encoding="iso-8859-1"?>
<!-- Generator: Adobe Illustrator 19.0.0, SVG Export Plug-In . SVG Version: 6.00 Build 0)  -->
<svg version="1.1" id="Layer_1" xmlns="http://www.w3.org/2000/svg" xmlns:xlink="http://www.w3.org/1999/xlink" x="0px" y="0px"
	 viewBox="0 0 512.003 512.003" style="enable-background:new 0 0 512.003 512.003;" xml:space="preserve">
<circle style="fill:#A4A9AD;" cx="444.988" cy="177.79" r="16.377"/>
<path style="fill:#0071CE;" d="M471.075,233.492H355.936l-11.209-66.073c-1.714-10.102-11.499-18.367-21.746-18.367H72.136
	c-10.248,0-20.033,8.265-21.746,18.367L24.556,319.703c-1.713,10.102,5.268,18.367,15.514,18.367h431.005
	c10.248,0,18.63-8.384,18.63-18.63v-67.318C489.706,241.876,481.323,233.492,471.075,233.492z"/>
<rect x="451.461" y="281.643" style="fill:#FFB819;" width="38.244" height="25.96"/>
<path style="fill:#FFFFFF;" d="M457.517,307.601h-8.797c-2.05,0-3.727-1.676-3.727-3.726v-18.507c0-2.05,1.677-3.726,3.727-3.726
	h8.797V307.601z"/>
<polygon style="fill:#FFB819;" points="31.013,281.643 26.609,307.601 59.917,307.601 59.917,281.643 "/>
<path style="fill:#FFFFFF;" d="M53.862,307.601h8.797c2.05,0,3.726-1.676,3.726-3.726v-18.507c0-2.05-1.676-3.726-3.726-3.726
	h-8.797V307.601z"/>
<path style="opacity:0.1;enable-background:new    ;" d="M196.126,338.071c0-36.212-29.356-65.57-65.57-65.57
	c-36.212,0-65.57,29.356-65.57,65.57H196.126z"/>
<circle style="fill:#333E48;" cx="130.556" cy="338.071" r="53.822"/>
<circle style="fill:#A4A9AD;" cx="130.556" cy="338.071" r="27.28"/>
<path style="opacity:0.1;enable-background:new    ;" d="M432.937,338.071c0-36.212-29.356-65.57-65.57-65.57
	c-36.212,0-65.57,29.356-65.57,65.57H432.937z"/>
<circle style="fill:#333E48;" cx="367.368" cy="338.071" r="53.822"/>
<g>
	<circle style="fill:#A4A9AD;" cx="367.368" cy="338.071" r="27.281"/>
	<path style="fill:#A4A9AD;" d="M503.989,333.684c0,5.464-4.471,9.937-9.936,9.937h-22.357c-5.464,0-9.937-4.471-9.937-9.937
		v-16.146c0-5.464,4.471-9.937,9.937-9.937h22.357c5.464,0,9.936,4.471,9.936,9.937V333.684z"/>
	<path style="fill:#A4A9AD;" d="M50.239,333.684c0,5.464-4.472,9.937-9.937,9.937H17.947c-5.464,0-9.936-4.471-9.936-9.937v-16.146
		c0-5.464,4.471-9.937,9.936-9.937h22.357c5.464,0,9.937,4.471,9.937,9.937v16.146H50.239z"/>
</g>
<g>
	<path style="fill:#333E48;" d="M226.398,178.904c0-4.699,3.845-8.545,8.545-8.545h70.059c4.7,0,8.545,3.846,8.545,8.545v38.591
		c0,4.7-3.845,8.545-8.545,8.545h-70.059c-4.7,0-8.545-3.845-8.545-8.545V178.904z"/>
	<path style="fill:#333E48;" d="M83.566,178.784c0.786-4.633,5.274-8.425,9.974-8.425h76.439c4.7,0,8.545,3.846,8.545,8.545v38.591
		c0,4.7-3.845,8.545-8.545,8.545H84.095c-4.7,0-7.902-3.791-7.116-8.424L83.566,178.784z"/>
</g>
<path style="opacity:0.1;enable-background:new    ;" d="M305.002,170.359h-70.059c-4.7,0-8.545,3.846-8.545,8.545v9.566
	c0-4.699,3.845-8.545,8.545-8.545h70.059c4.7,0,8.545,3.846,8.545,8.545v-9.566C313.547,174.205,309.702,170.359,305.002,170.359z"
	/>
<path style="opacity:0.1;enable-background:new    ;" d="M169.98,170.359H93.54c-4.7,0-9.188,3.792-9.974,8.425l-1.541,9.085
	c1.005-4.411,5.333-7.945,9.867-7.945h78.087c4.7,0,8.545,3.846,8.545,8.545v-9.566C178.525,174.205,174.679,170.359,169.98,170.359
	z"/>
<path style="fill:#1E252B;" d="M169.98,162.348H93.54c-8.586,0-16.436,6.631-17.872,15.096l-6.587,38.831
	c-0.77,4.54,0.425,9.08,3.279,12.459c2.854,3.38,7.131,5.317,11.735,5.317h85.884c9.129,0,16.556-7.427,16.556-16.556v-38.591
	C186.536,169.775,179.108,162.348,169.98,162.348z M170.514,217.495c0,0.275-0.26,0.534-0.534,0.534l-84.944-0.002l6.43-37.903
	c0.134-0.787,1.277-1.754,2.075-1.754h76.439c0.275,0,0.534,0.26,0.534,0.534V217.495z M262.831,239.919h-28.98
	c-4.424,0-8.011,3.587-8.011,8.011c0,4.424,3.587,8.011,8.011,8.011h28.98c4.424,0,8.011-3.587,8.011-8.011
	C270.841,243.506,267.255,239.919,262.831,239.919z M497.717,299.97v-47.847c0-14.69-11.951-26.641-26.641-26.641h-18.072v-24.661
	c9.524-3.322,16.377-12.389,16.377-23.032c0-13.448-10.941-24.388-24.388-24.388c-13.448,0-24.388,10.941-24.388,24.388
	c0,10.643,6.854,19.709,16.377,23.032v24.661h-74.28l-10.077-59.402c-2.382-14.04-15.403-25.039-29.645-25.039h-11.801v-12.918
	h12.823c4.424,0,8.011-3.587,8.011-8.011s-3.587-8.011-8.011-8.011H63.328c-4.424,0-8.011,3.587-8.011,8.011
	s3.587,8.011,8.011,8.011H76.15v12.918h-4.014c-14.241,0-27.263,10.998-29.645,25.039L19.843,299.59h-1.897
	C8.05,299.59,0,307.642,0,317.538v16.146c0,9.896,8.05,17.948,17.947,17.948h22.357c5.087,0,9.676-2.137,12.946-5.549h16.014
	c3.942,30.321,29.917,53.82,61.295,53.82s57.352-23.5,61.295-53.82h114.221c3.942,30.321,29.918,53.82,61.296,53.82
	c31.377,0,57.352-23.5,61.295-53.82h30.089c3.27,3.412,7.858,5.549,12.946,5.549h22.357c9.896,0,17.947-8.051,17.947-17.948v-16.146
	C512,308.897,505.862,301.666,497.717,299.97z M436.626,177.789c0-4.613,3.753-8.367,8.367-8.367c4.613,0,8.367,3.753,8.367,8.367
	c0,4.614-3.753,8.368-8.367,8.368C440.38,186.156,436.626,182.403,436.626,177.789z M92.172,128.122h202.986v12.918H92.172V128.122z
	 M42.228,333.684c0,1.044-0.882,1.926-1.926,1.926H17.947c-1.042,0-1.925-0.882-1.925-1.926v-16.146
	c0-1.044,0.881-1.926,1.925-1.926h22.357c1.044,0,1.926,0.882,1.926,1.926v16.146H42.228z M130.556,383.88
	c-25.259,0-45.809-20.55-45.809-45.809c0-25.259,20.55-45.809,45.809-45.809c25.259,0,45.809,20.55,45.809,45.809
	C176.365,363.33,155.816,383.88,130.556,383.88z M367.367,383.88c-25.26,0-45.81-20.55-45.81-45.809
	c0-25.259,20.551-45.809,45.81-45.809c25.259,0,45.809,20.55,45.809,45.809S392.627,383.88,367.367,383.88z M453.75,317.538v12.523
	h-25.087c-3.942-30.321-29.917-53.82-61.295-53.82c-31.378,0-57.353,23.5-61.296,53.82H191.851
	c-3.942-30.321-29.917-53.82-61.295-53.82c-31.377,0-57.352,23.5-61.295,53.82H58.249v-12.523c0-9.896-8.051-17.948-17.948-17.948
	h-4.208l22.194-130.833c1.056-6.231,7.528-11.697,13.848-11.697h250.845c6.32,0,12.791,5.466,13.848,11.697l11.209,66.073
	c0.654,3.852,3.99,6.671,7.899,6.671h115.139c5.855,0,10.619,4.764,10.619,10.619v47.468h-9.998
	C461.801,299.59,453.75,307.642,453.75,317.538z M495.978,333.684c0,1.044-0.881,1.926-1.925,1.926h-22.357
	c-1.044,0-1.926-0.882-1.926-1.926v-16.146c0-1.044,0.882-1.926,1.926-1.926h22.357c1.044,0,1.925,0.882,1.925,1.926V333.684z
	 M106.959,239.919H77.978c-4.424,0-8.011,3.587-8.011,8.011c0,4.424,3.587,8.011,8.011,8.011h28.981
	c4.424,0,8.011-3.587,8.011-8.011C114.97,243.506,111.383,239.919,106.959,239.919z M305.002,162.348h-70.059
	c-9.129,0-16.556,7.427-16.556,16.556v38.591c0,9.129,7.427,16.556,16.556,16.556h70.059c9.129,0,16.556-7.427,16.556-16.556
	v-38.591C321.558,169.775,314.131,162.348,305.002,162.348z M305.536,217.495c0,0.275-0.26,0.534-0.534,0.534h-70.059
	c-0.275,0-0.534-0.26-0.534-0.534v-38.591c0-0.275,0.26-0.534,0.534-0.534h70.059c0.275,0,0.534,0.26,0.534,0.534L305.536,217.495
	L305.536,217.495z M367.367,302.781c-19.46,0-35.292,15.832-35.292,35.291c0,19.459,15.832,35.291,35.292,35.291
	c19.459,0,35.291-15.832,35.291-35.291C402.658,318.612,386.827,302.781,367.367,302.781z M367.367,357.34
	c-10.626,0-19.27-8.644-19.27-19.269c0-10.625,8.644-19.269,19.27-19.269c10.625,0,19.269,8.644,19.269,19.269
	C386.636,348.696,377.993,357.34,367.367,357.34z M130.556,302.781c-19.459,0-35.291,15.832-35.291,35.291
	c0,19.459,15.832,35.291,35.291,35.291s35.291-15.832,35.291-35.291S150.016,302.781,130.556,302.781z M130.556,357.34
	c-10.625,0-19.269-8.644-19.269-19.269c0-10.625,8.644-19.269,19.269-19.269c10.625,0,19.269,8.644,19.269,19.269
	C149.825,348.696,141.182,357.34,130.556,357.34z"/>
<g>
</g>
<g>
</g>
<g>
</g>
<g>
</g>
<g>
</g>
<g>
</g>
<g>
</g>
<g>
</g>
<g>
</g>
<g>
</g>
<g>
</g>
<g>
</g>
<g>
</g>
<g>
</g>
<g>
</g>
</svg>
