<?xml version="1.0" encoding="iso-8859-1"?>
<!-- Generator: Adobe Illustrator 19.0.0, SVG Export Plug-In . SVG Version: 6.00 Build 0)  -->
<svg version="1.1" id="Layer_1" xmlns="http://www.w3.org/2000/svg" xmlns:xlink="http://www.w3.org/1999/xlink" x="0px" y="0px"
	 viewBox="0 0 512 512" style="enable-background:new 0 0 512 512;" xml:space="preserve">
<path style="fill:#6583B7;" d="M460.8,412.295H51.2c-11.906,0-21.558-9.651-21.558-21.558V88.926
	c0-11.906,9.651-21.558,21.558-21.558h409.6c11.906,0,21.558,9.651,21.558,21.558v301.81
	C482.358,402.643,472.706,412.295,460.8,412.295z"/>
<path style="fill:#819AD1;" d="M482.358,88.926v156.295H29.642V88.926c0-11.906,9.651-21.558,21.558-21.558h409.6
	C472.706,67.368,482.358,77.02,482.358,88.926z"/>
<path style="fill:#999999;" d="M460.8,444.632H51.2c-23.812,0-43.116-19.304-43.116-43.116l0,0c0-11.906,9.651-21.558,21.558-21.558
	h452.716c11.906,0,21.558,9.651,21.558,21.558l0,0C503.916,425.328,484.612,444.632,460.8,444.632z"/>
<path style="fill:#C1C1C1;" d="M482.358,379.958c6.948,0,13.112,3.302,17.054,8.405c-7.06,14.182-21.694,23.931-38.612,23.931H51.2
	c-16.918,0-31.552-9.75-38.612-23.931c3.943-5.104,10.105-8.405,17.054-8.405H482.358z"/>
<path style="fill:#999999;" d="M282.947,401.516h-53.895c-8.929,0-16.168-7.239-16.168-16.168l0,0
	c0-8.929,7.239-16.168,16.168-16.168h53.895c8.929,0,16.168,7.239,16.168,16.168l0,0
	C299.116,394.277,291.877,401.516,282.947,401.516z"/>
<path style="fill:#FE5A3A;" d="M261.389,218.274v107.789h-64.674V218.274c0-5.953,4.826-10.779,10.779-10.779h43.116
	C256.564,207.495,261.389,212.32,261.389,218.274z"/>
<path style="fill:#FE9D5E;" d="M207.495,175.158v150.905h-64.674V175.158c0-5.953,4.826-10.779,10.779-10.779h43.116
	C202.669,164.379,207.495,169.205,207.495,175.158z"/>
<path style="fill:#FEF184;" d="M164.379,272.168v53.895H99.705v-53.895c0-5.953,4.826-10.779,10.779-10.779H153.6
	C159.553,261.389,164.379,266.215,164.379,272.168z"/>
<path style="fill:#C1C1C1;" d="M482.358,88.926v21.558H29.642V88.926c0-11.906,9.651-21.558,21.558-21.558h409.6
	C472.706,67.368,482.358,77.02,482.358,88.926z"/>
<path style="fill:#DBDBDB;" d="M282.947,110.484c0,14.882-12.065,26.947-26.947,26.947s-26.947-12.065-26.947-26.947
	S241.117,83.537,256,83.537S282.947,95.602,282.947,110.484z"/>
<path d="M396.126,280.253c4.466,0,8.084,3.618,8.084,8.084s-3.618,8.084-8.084,8.084h-64.674c-4.466,0-8.084-3.618-8.084-8.084
	s3.618-8.084,8.084-8.084H396.126z M428.463,194.021h-97.011c-4.466,0-8.084,3.618-8.084,8.084s3.618,8.084,8.084,8.084h97.011
	c4.466,0,8.084-3.618,8.084-8.084S432.929,194.021,428.463,194.021z M29.642,355.705c4.466,0,8.084-3.618,8.084-8.084V118.568
	h185.937c4.466,0,8.084-3.618,8.084-8.084s-3.618-8.084-8.084-8.084H37.726V88.926c0-7.43,6.044-13.474,13.474-13.474h409.6
	c7.43,0,13.474,6.044,13.474,13.474V102.4H288.337c-4.466,0-8.084,3.618-8.084,8.084s3.618,8.084,8.084,8.084h185.937v229.053
	c0,4.466,3.618,8.084,8.084,8.084s8.084-3.618,8.084-8.084V88.926c0-16.344-13.298-29.642-29.642-29.642H51.2
	c-16.344,0-29.642,13.298-29.642,29.642v258.695C21.558,352.087,25.176,355.705,29.642,355.705z M436.547,245.221
	c0-4.466-3.618-8.084-8.084-8.084h-97.011c-4.466,0-8.084,3.618-8.084,8.084c0,4.466,3.618,8.084,8.084,8.084h97.011
	C432.929,253.305,436.547,249.687,436.547,245.221z M512,401.516c0,28.231-22.969,51.2-51.2,51.2H51.2
	c-28.231,0-51.2-22.969-51.2-51.2c0-16.344,13.298-29.642,29.642-29.642h179.254c4.356-6.495,11.765-10.779,20.157-10.779h53.895
	c8.391,0,15.801,4.284,20.157,10.779h179.254C498.702,371.874,512,385.172,512,401.516z M220.968,385.347
	c0,4.458,3.626,8.084,8.084,8.084h53.895c4.458,0,8.084-3.626,8.084-8.084s-3.626-8.084-8.084-8.084h-53.895
	C224.594,377.263,220.968,380.889,220.968,385.347z M495.832,401.516c0-7.43-6.044-13.474-13.474-13.474H307.051
	c-1.345,12.109-11.642,21.558-24.104,21.558h-53.895c-12.463,0-22.759-9.449-24.104-21.558H29.642
	c-7.43,0-13.474,6.044-13.474,13.474c0,19.317,15.715,35.032,35.032,35.032h409.6C480.117,436.547,495.832,420.833,495.832,401.516z
	 M172.463,272.168v45.811h26.947V175.158c0-1.486-1.208-2.695-2.695-2.695H153.6c-1.486,0-2.695,1.208-2.695,2.695v58.224
	c0,4.466-3.618,8.084-8.084,8.084s-8.084-3.618-8.084-8.084v-58.224c0-10.401,8.463-18.863,18.863-18.863h43.116
	c10.401,0,18.863,8.463,18.863,18.863v142.821h37.726v-99.705c0-1.486-1.208-2.695-2.695-2.695h-16.168
	c-4.466,0-8.084-3.618-8.084-8.084c0-4.466,3.618-8.084,8.084-8.084h16.168c10.401,0,18.863,8.463,18.863,18.863v99.705h18.863
	c4.466,0,8.084,3.618,8.084,8.084s-3.618,8.084-8.084,8.084H72.758c-4.466,0-8.084-3.618-8.084-8.084s3.618-8.084,8.084-8.084
	h18.863v-45.811c0-10.401,8.463-18.863,18.863-18.863H153.6C164.001,253.305,172.463,261.768,172.463,272.168z M156.295,272.168
	c0-1.486-1.208-2.695-2.695-2.695h-43.116c-1.486,0-2.695,1.208-2.695,2.695v45.811h48.505V272.168z M256.539,118.568
	c4.466,0,8.084-3.618,8.084-8.084s-3.618-8.084-8.084-8.084h-1.078c-4.466,0-8.084,3.618-8.084,8.084s3.618,8.084,8.084,8.084
	H256.539z"/>
<g>
</g>
<g>
</g>
<g>
</g>
<g>
</g>
<g>
</g>
<g>
</g>
<g>
</g>
<g>
</g>
<g>
</g>
<g>
</g>
<g>
</g>
<g>
</g>
<g>
</g>
<g>
</g>
<g>
</g>
</svg>
