<?xml version="1.0" encoding="iso-8859-1"?>
<!-- Generator: Adobe Illustrator 19.0.0, SVG Export Plug-In . SVG Version: 6.00 Build 0)  -->
<svg version="1.1" id="Layer_1" xmlns="http://www.w3.org/2000/svg" xmlns:xlink="http://www.w3.org/1999/xlink" x="0px" y="0px"
	 viewBox="0 0 511.998 511.998" style="enable-background:new 0 0 511.998 511.998;" xml:space="preserve">
<g>
	<path style="fill:#333E48;" d="M427.919,429.786c-41.992,0-76.155-34.164-76.155-76.155c0-41.993,34.164-76.156,76.155-76.156
		c41.993,0,76.156,34.164,76.156,76.156C504.075,395.623,469.911,429.786,427.919,429.786z M427.919,309.174
		c-24.512,0-44.455,19.943-44.455,44.456c0,24.512,19.943,44.455,44.455,44.455c24.513,0,44.456-19.943,44.456-44.455
		C472.374,329.117,452.432,309.174,427.919,309.174z"/>
	<path style="fill:#333E48;" d="M84.08,430.56c-41.992,0-76.155-34.164-76.155-76.155c0-41.993,34.164-76.156,76.155-76.156
		c41.993,0,76.156,34.164,76.156,76.156C160.238,396.396,126.074,430.56,84.08,430.56z M84.08,309.949
		c-24.512,0-44.455,19.943-44.455,44.456c0,24.512,19.943,44.455,44.455,44.455c24.513,0,44.456-19.943,44.456-44.455
		C128.537,329.892,108.594,309.949,84.08,309.949z"/>
</g>
<path style="fill:#7D868C;" d="M86.192,369.589c-6.631,0-12.812-4.193-15.031-10.829c-2.775-8.302,1.705-17.282,10.008-20.058
	l119.296-39.881c8.303-2.774,17.282,1.704,20.058,10.007c2.775,8.302-1.705,17.282-10.008,20.058L91.219,368.767
	C89.553,369.324,87.858,369.589,86.192,369.589z"/>
<path style="opacity:0.2;enable-background:new    ;" d="M220.523,308.828c-2.776-8.302-11.755-12.782-20.058-10.007l-54.471,18.21
	c3.209,10.604,8.855,20.141,16.28,27.982l48.241-16.127C218.818,326.111,223.298,317.131,220.523,308.828z"/>
<circle style="fill:#7D868C;" cx="213.418" cy="296.6" r="56.363"/>
<path style="opacity:0.2;enable-background:new    ;" d="M213.424,240.23c-27.753,0-50.803,20.061-55.483,46.47
	c10.159-1.236,19.036-3.2,27.232-5.015c9.771-2.164,18.21-4.034,26.366-4.034c8.388,0,22.643,1.872,37.734,3.853
	c6.164,0.809,12.562,1.646,19.07,2.437C262.597,258.907,240.198,240.23,213.424,240.23z"/>
<path style="fill:#333E48;" d="M272.886,351.051c-8.039,0-15.978-3.654-21.166-10.585c-8.744-11.678-6.365-28.236,5.312-36.98
	c0.712-0.533,1.906-1.734,1.906-3.791c0-2.602-2.117-4.718-4.719-4.718c-14.59,0-26.417-11.827-26.417-26.417
	c0-14.591,11.827-26.417,26.417-26.417c31.734,0,57.553,25.818,57.553,57.552c0,18.039-8.626,35.267-23.073,46.084
	C283.951,349.334,278.395,351.051,272.886,351.051z"/>
<path style="opacity:0.2;enable-background:new    ;" d="M254.219,242.142c-14.59,0-26.417,11.826-26.417,26.417
	c0,3.736,0.78,7.289,2.18,10.512c5.964,0.685,12.542,1.547,19.292,2.432c19.309,2.535,40.864,5.363,61.198,6.045
	C304.878,261.628,281.787,242.142,254.219,242.142z"/>
<path style="fill:#7D868C;" d="M427.391,365.627c-6.47,0-12.545-3.99-14.892-10.422l-37.929-103.961
	c-3-8.223,1.234-17.322,9.458-20.322c8.222-3,17.322,1.233,20.322,9.457L442.28,344.34c3,8.224-1.234,17.322-9.458,20.322
	C431.03,365.316,429.195,365.627,427.391,365.627z"/>
<path style="opacity:0.2;enable-background:new    ;" d="M404.352,240.379c-3.001-8.224-12.1-12.457-20.322-9.457
	c-8.224,3-12.458,12.099-9.458,20.322l12.592,34.517c11.032-2.337,20.848-6.76,28.948-13.138c0,0,0.002-0.001,0.003-0.003
	L404.352,240.379z"/>
<rect x="303.893" y="131.274" transform="matrix(-0.3191 -0.9477 0.9477 -0.3191 330.814 531.9229)" style="fill:#333E48;" width="105.191" height="31.7"/>
<path style="opacity:0.2;enable-background:new    ;" d="M376.411,156.639c-2.744-0.329-5.529-0.517-8.359-0.517h-25.264
	l15.46,45.914l30.044-10.116L376.411,156.639z"/>
<path style="fill:#7D868C;" d="M339.7,113.14h-22.626c-8.754,0-15.85-7.097-15.85-15.85s7.097-15.85,15.85-15.85H339.7
	c8.754,0,15.85,7.097,15.85,15.85S348.455,113.14,339.7,113.14z"/>
<path style="fill:#61B4E4;" d="M368.051,171.973h-48.713c-43.478,0-100.718,17.097-128.395,17.097
	c-27.676,0-32.824-17.097-53.422-17.097H73.156c-13.864,0-25.102,11.239-25.102,25.103c0,5.388,1.698,10.38,4.587,14.469
	l0.003-0.007c9.285,9.283,52.694,60.562,84.875,60.562c32.182,0,52.134-10.298,74.019-10.298c21.884,0,69.536,10.053,107.799,10.053
	h48.713c29.879,0,54.101-15.899,54.101-45.779C422.152,196.195,397.93,171.973,368.051,171.973z"/>
<path style="fill:#333E48;" d="M284.885,174.636c-35.757,4.806-73.174,14.433-93.943,14.433c-27.676,0-32.824-17.097-53.422-17.097
	h-14.451c10.746,16.738,28.323,53.688,142.755,28.564C288.504,195.557,289.307,185.287,284.885,174.636z"/>
<path style="fill:#FFCE00;" d="M328.388,239.514c-8.999,0-16.296-7.296-16.296-16.295c0-9,7.297-16.295,16.296-16.295h40.283
	c8.999,0,16.295,7.295,16.295,16.295s-7.296,16.295-16.295,16.295H328.388z"/>
<path style="fill:#1E252B;" d="M427.919,269.549c-1.478,0-2.961,0.049-4.441,0.127l-4.142-11.353
	c6.895-8.689,10.742-19.652,10.742-32.248c0-27.064-17.429-50.121-41.647-58.572l-26.197-77.801l-0.005,0.001
	c-3.174-9.4-12.069-16.189-22.526-16.189h-22.626c-13.109,0-23.775,10.665-23.775,23.775s10.666,23.775,23.775,23.775h5.543
	l14.473,42.983h-17.755c-24.914,0-53.817,5.375-79.317,10.118c-19.298,3.59-37.526,6.979-49.078,6.979
	c-12.698,0-19.619-4.078-26.95-8.395c-6.924-4.079-14.771-8.702-26.472-8.702H73.156c-18.211,0-33.027,14.816-33.027,33.028
	c0,6.863,2.089,13.447,6.039,19.041c0.323,0.459,0.69,0.875,1.093,1.247c1.034,1.048,2.542,2.664,4.42,4.674
	c16.199,17.352,54.134,57.988,85.839,57.988c4.918,0,9.551-0.232,13.956-0.621c-1.544,5.578-2.345,11.369-2.345,17.193
	c0,1.638,0.081,3.257,0.203,4.865c-15.852-19.45-39.875-31.137-65.254-31.137C37.718,270.323,0,308.042,0,354.405
	c0,46.362,37.718,84.08,84.08,84.08c46.363,0,84.081-37.718,84.081-84.08c0-0.993-0.023-1.988-0.059-2.983l7.859-2.627
	c10.557,7.598,23.49,12.091,37.462,12.091c12.943,0,25.491-3.902,36.085-11.093c6.301,5.827,14.678,9.183,23.378,9.183
	c7.464,0,14.575-2.37,20.563-6.854c16.436-12.306,26.248-31.905,26.248-52.427c0-6.788-1.068-13.52-3.121-19.94
	c0.922,0.012,1.847,0.024,2.761,0.024h48.713c2.861,0,5.641-0.144,8.351-0.395l2.244,6.151
	c-21.907,15.824-34.808,40.822-34.808,68.096c0,46.362,37.718,84.08,84.08,84.08c46.363,0,84.081-37.718,84.081-84.08
	C512,307.268,474.282,269.549,427.919,269.549z M434.836,347.055c1.497,4.105-0.624,8.664-4.731,10.162
	c-0.88,0.321-1.793,0.484-2.714,0.484c-3.317,0-6.309-2.094-7.446-5.213l-27.799-76.197c5.295-1.657,10.141-3.872,14.462-6.605
	L434.836,347.055z M449.726,341.623l-7.966-21.836c13.386,5.428,22.69,18.505,22.69,33.843c0,20.142-16.388,36.53-36.531,36.53
	c-20.143,0-36.53-16.387-36.53-36.53c0-6.726,1.846-13.201,5.235-18.817l8.431,23.108c3.411,9.35,12.389,15.63,22.337,15.63
	c2.78,0,5.522-0.486,8.147-1.444C447.854,367.614,454.218,353.94,449.726,341.623z M370.564,164.111
	c-0.835-0.033-1.671-0.063-2.514-0.063h-14.235l-14.473-42.983h0.358c5.529,0,10.617-1.901,14.659-5.077L370.564,164.111z
	 M317.075,105.214c-4.37,0-7.925-3.555-7.925-7.925s3.555-7.925,7.925-7.925H339.7c4.37,0,7.925,3.555,7.925,7.925
	s-3.555,7.925-7.925,7.925H317.075z M84.08,422.635c-37.622,0-68.23-30.608-68.23-68.23c0-37.623,30.608-68.231,68.23-68.231
	c20.664,0,40.225,9.557,53.093,25.45l-16.363,5.47c-9.768-9.634-22.873-15.07-36.73-15.07c-28.882,0-52.38,23.499-52.38,52.381
	c0,28.882,23.497,52.38,52.38,52.38c26.273,0,48.04-19.181,51.8-44.591l16.372-5.474C151.025,393.273,120.926,422.635,84.08,422.635
	z M63.644,361.273c3.248,9.714,12.308,16.241,22.548,16.241c2.561,0,5.097-0.414,7.54-1.231l24.205-8.092
	c-5.43,13.406-18.547,22.743-33.857,22.743c-20.142,0-36.53-16.387-36.53-36.53c0-20.144,16.387-36.531,36.53-36.531
	c6.717,0,13.18,1.841,18.788,5.218l-24.213,8.094C66.223,335.342,59.489,348.838,63.644,361.273z M88.706,361.251
	c-0.819,0.274-1.665,0.413-2.515,0.413c-3.412,0-6.432-2.177-7.514-5.415c-1.385-4.144,0.859-8.644,5.003-10.029l70.924-23.71
	c2.213,5.001,5.045,9.667,8.399,13.905L88.706,361.251z M240.689,336.623c-7.997,5.452-17.482,8.412-27.267,8.412
	c-26.71,0-48.442-21.731-48.442-48.439c0-6.788,1.448-13.51,4.177-19.663c5.04-0.938,9.78-1.984,14.299-2.986
	c10.226-2.266,19.057-4.221,28.08-4.221c2.437,0,5.254,0.139,8.373,0.38c0.702,15.746,12.056,28.768,27.013,32.015
	C238.678,311.62,236.343,324.944,240.689,336.623z M283.95,339.435c-3.225,2.415-7.051,3.691-11.063,3.691
	c-5.894,0-11.297-2.701-14.822-7.409c-6.112-8.163-4.443-19.775,3.717-25.885c3.23-2.418,5.083-6.112,5.083-10.137
	c0-6.972-5.672-12.643-12.644-12.643c-9.086,0-16.646-6.594-18.189-15.244c4.491,0.554,9.276,1.182,14.275,1.839
	c15.515,2.036,32.494,4.259,49.007,5.387c2.964,6.453,4.535,13.513,4.535,20.662C303.847,315.248,296.409,330.104,283.95,339.435z
	 M368.051,263.928h-48.713c-21.268,0-45.547-3.187-66.969-5.999c-16.574-2.176-30.887-4.055-40.829-4.055
	c-10.758,0-20.838,2.233-31.508,4.597c-12.655,2.803-25.739,5.702-42.509,5.702c-24.818,0-60.734-38.471-74.254-52.954
	c-1.835-1.968-3.338-3.576-4.505-4.769c-1.823-2.789-2.782-6.018-2.782-9.377c0-9.471,7.705-17.177,17.176-17.177h64.364
	c7.378,0,12.254,2.872,18.427,6.508c8.009,4.718,17.975,10.589,34.994,10.589c13.013,0,31.069-3.358,51.976-7.247
	c24.827-4.618,52.965-9.85,76.418-9.85h48.713c25.462,0,46.176,20.715,46.176,46.178
	C414.227,254.016,389.353,263.928,368.051,263.928z M427.919,421.861c-37.622,0-68.23-30.608-68.23-68.23
	c0-20.588,9.068-39.582,24.657-52.476l5.884,16.129c-9.397,9.728-14.69,22.677-14.69,36.346c0,28.882,23.497,52.38,52.38,52.38
	c28.883,0,52.381-23.497,52.381-52.38c0-26.539-19.42-48.361-45.121-51.882l-5.952-16.316c37.019,0.703,66.924,31.014,66.924,68.198
	C496.15,391.253,465.541,421.861,427.919,421.861z"/>
<g>
</g>
<g>
</g>
<g>
</g>
<g>
</g>
<g>
</g>
<g>
</g>
<g>
</g>
<g>
</g>
<g>
</g>
<g>
</g>
<g>
</g>
<g>
</g>
<g>
</g>
<g>
</g>
<g>
</g>
</svg>
