<?xml version="1.0" encoding="iso-8859-1"?>
<!-- Generator: Adobe Illustrator 24.0.3, SVG Export Plug-In . SVG Version: 6.00 Build 0)  -->
<svg version="1.1" xmlns="http://www.w3.org/2000/svg" xmlns:xlink="http://www.w3.org/1999/xlink" x="0px" y="0px"
	 viewBox="0 0 64 64" style="enable-background:new 0 0 64 64;" xml:space="preserve">
<g id="streaming-mobile">
	<path style="fill:#D4C3F7;" d="M43.349,2.268h-2.043v1.305c0,1.94-1.589,3.529-3.529,3.529H26.68c-1.952,0-3.529-1.589-3.529-3.529
		V2.268h-2.496c-1.884,0-3.404,1.532-3.404,3.404v52.653c0,1.884,1.521,3.404,3.404,3.404h22.695c1.872,0,3.404-1.521,3.404-3.404
		V5.672C46.754,3.8,45.222,2.268,43.349,2.268z M37.903,60.367H26.101v-2.27h11.801V60.367z M32.229,41.326
		c-5.322,0-9.645-4.323-9.645-9.645c0-5.311,4.323-9.645,9.645-9.645c5.311,0,9.645,4.335,9.645,9.645
		C41.874,37.003,37.54,41.326,32.229,41.326z"/>
	<path style="fill:#605491;" d="M26.1,58.1h11.801v2.27H26.1V58.1z M49.021,5.674v52.652c0,3.128-2.545,5.674-5.674,5.674H20.652
		c-3.128,0-5.674-2.545-5.674-5.674V5.674C14.979,2.545,17.524,0,20.652,0h22.695C46.476,0,49.021,2.545,49.021,5.674z
		 M25.419,3.567c0,0.696,0.567,1.263,1.263,1.263h11.09c0.697,0,1.263-0.567,1.263-1.263V2.27H25.419V3.567z M46.752,5.674
		c0-1.877-1.527-3.404-3.404-3.404h-2.042v1.298c0,1.948-1.585,3.533-3.533,3.533h-11.09c-1.948,0-3.533-1.585-3.533-3.533V2.27
		h-2.497c-1.877,0-3.404,1.527-3.404,3.404v52.652c0,1.877,1.527,3.404,3.404,3.404h22.695c1.877,0,3.404-1.527,3.404-3.404V5.674z
		 M41.873,31.683c0,5.319-4.327,9.645-9.645,9.645c-5.319,0-9.645-4.327-9.645-9.645s4.327-9.645,9.645-9.645
		C37.545,22.038,41.873,26.365,41.873,31.683z M39.603,31.683c0-4.067-3.309-7.376-7.376-7.376s-7.376,3.309-7.376,7.376
		s3.309,7.376,7.376,7.376S39.603,35.75,39.603,31.683z M37.371,31.683c0,0.416-0.227,0.798-0.593,0.997l-6.25,3.4
		c-0.17,0.092-0.356,0.138-0.542,0.138c-0.201,0-0.401-0.053-0.58-0.16c-0.344-0.204-0.555-0.575-0.555-0.975v-6.801
		c0-0.4,0.211-0.771,0.555-0.975c0.345-0.206,0.77-0.212,1.122-0.022l6.25,3.4C37.144,30.885,37.371,31.268,37.371,31.683z
		 M33.862,31.683l-2.741-1.491v2.982L33.862,31.683z"/>
</g>
<g id="Layer_1">
</g>
</svg>
