<?xml version="1.0" encoding="UTF-8"?>
<!DOCTYPE svg PUBLIC "-//W3C//DTD SVG 1.1//EN" "http://www.w3.org/Graphics/SVG/1.1/DTD/svg11.dtd">
<!-- Creator: CorelDRAW -->
<svg xmlns="http://www.w3.org/2000/svg" xml:space="preserve" width="6.82666in" height="6.82666in" style="shape-rendering:geometricPrecision; text-rendering:geometricPrecision; image-rendering:optimizeQuality; fill-rule:evenodd; clip-rule:evenodd"
viewBox="0 0 6.82666 6.82666"
 xmlns:xlink="http://www.w3.org/1999/xlink">
 <defs>
  <style type="text/css">
   <![CDATA[
    .fil0 {fill:#FF9800}
    .fil2 {fill:#FFFFFE}
    .fil1 {fill:#FFFFFE;fill-rule:nonzero}
   ]]>
  </style>
 </defs>
 <g id="Layer_x0020_1">
  <metadata id="CorelCorpID_0Corel-Layer"/>
  <rect class="fil0" width="6.82666" height="6.82666" rx="0.853335" ry="0.853335"/>
  <path class="fil1" d="M1.59811 0.853331c-0.0585354,0 -0.105988,0.0474567 -0.105988,0.105988 0,0.0585354 0.0474528,0.105992 0.105988,0.105992l3.63044 0c0.0585354,0 0.105992,-0.0474567 0.105992,-0.105992 0,-0.0585315 -0.0474567,-0.105988 -0.105992,-0.105988l-3.63044 0z"/>
  <polygon class="fil1" points="1.36689,1.20136 5.31491,1.20136 5.38956,1.20136 5.41469,1.27175 5.94461,2.75556 5.99518,2.89715 5.84484,2.89715 0.969449,2.89715 0.83148,2.89715 0.867189,2.76384 1.26463,1.28003 1.2857,1.20136 "/>
  <path class="fil2" d="M5.53307 3.00473l0 2.9686 -4.23948 0 0 -2.9686 4.23948 0zm-2.43628 0.240598l2.10259 0 0 1.93639 -2.10259 0 0 -1.93639zm-1.50608 0.00657087l1.18335 0 0 2.47426 -1.18335 0 0 -2.47426z"/>
  <path class="fil1" d="M4.91064 4.06843c0.020689,-0.020689 0.020689,-0.0542441 0,-0.074937 -0.0206929,-0.020689 -0.054248,-0.020689 -0.074937,0l-0.900886 0.900886c-0.0206929,0.0206929 -0.0206929,0.054248 0,0.074937 0.020689,0.0206929 0.0542441,0.0206929 0.074937,0l0.900886 -0.900886z"/>
  <path class="fil1" d="M4.93462 4.47721c0.020689,-0.020689 0.020689,-0.0542441 0,-0.074937 -0.0206929,-0.020689 -0.054248,-0.020689 -0.074937,0l-0.476945 0.476945c-0.0206929,0.020689 -0.0206929,0.054248 0,0.074937 0.020689,0.020689 0.0542441,0.020689 0.074937,0l0.476945 -0.476945z"/>
  <polygon class="fil1" points="2.5305,3.928 2.5305,4.27406 2.42451,4.27406 2.42451,3.928 "/>
  <path class="fil1" d="M2.4775 4.21606c0.0275118,0 0.0524252,0.0111535 0.0704606,0.029189 0.0180315,0.0180354 0.029189,0.0429488 0.029189,0.0704567 0,0.0275157 -0.0111575,0.0524252 -0.029189,0.0704606 -0.0180354,0.0180315 -0.0429488,0.029189 -0.0704606,0.029189 -0.0275118,0 -0.0524213,-0.0111575 -0.0704567,-0.029189 -0.0180354,-0.0180354 -0.029189,-0.0429449 -0.029189,-0.0704606 0,-0.0275079 0.0111535,-0.0524213 0.029189,-0.0704567 0.0180354,-0.0180354 0.0429449,-0.029189 0.0704567,-0.029189z"/>
  <path class="fil1" d="M2.4775 3.82501c0.0275118,0 0.0524252,0.0111535 0.0704606,0.029189 0.0180315,0.0180354 0.029189,0.0429488 0.029189,0.0704567 0,0.0275157 -0.0111575,0.0524252 -0.029189,0.0704606 -0.0180354,0.0180354 -0.0429488,0.029189 -0.0704606,0.029189 -0.0275118,0 -0.0524213,-0.0111535 -0.0704567,-0.029189 -0.0180354,-0.0180354 -0.029189,-0.0429449 -0.029189,-0.0704606 0,-0.0275079 0.0111535,-0.0524213 0.029189,-0.0704567 0.0180354,-0.0180354 0.0429449,-0.029189 0.0704567,-0.029189z"/>
 </g>
</svg>
